<?xml version="1.0" encoding="utf-8"?>
<svg width="800" height="260" version="1.1" xmlns="http://www.w3.org/2000/svg">

    <!-- Edges -->
    <line x1="40" y1="40" x2="40" y2="220" stroke="black" stroke-width="1"/>
    <line x1="40" y1="40" x2="220" y2="40" stroke="black" stroke-width="1"/>
    <line x1="40" y1="40" x2="220" y2="220" stroke="black" stroke-width="1"/>
    <line x1="40" y1="220" x2="40" y2="40" stroke="black" stroke-width="1"/>
    <line x1="40" y1="220" x2="220" y2="40" stroke="black" stroke-width="1"/>
    <line x1="40" y1="220" x2="220" y2="220" stroke="black" stroke-width="1"/>
    <line x1="40" y1="220" x2="400" y2="40" stroke="black" stroke-width="1"/>
    <line x1="220" y1="40" x2="40" y2="40" stroke="black" stroke-width="1"/>
    <line x1="220" y1="40" x2="40" y2="220" stroke="black" stroke-width="1"/>
    <line x1="220" y1="40" x2="220" y2="220" stroke="black" stroke-width="1"/>
    <line x1="220" y1="40" x2="400" y2="40" stroke="black" stroke-width="1"/>
    <line x1="220" y1="40" x2="400" y2="220" stroke="black" stroke-width="1"/>
    <line x1="220" y1="220" x2="40" y2="40" stroke="black" stroke-width="1"/>
    <line x1="220" y1="220" x2="40" y2="220" stroke="black" stroke-width="1"/>
    <line x1="220" y1="220" x2="220" y2="40" stroke="black" stroke-width="1"/>
    <line x1="220" y1="220" x2="400" y2="40" stroke="black" stroke-width="1"/>
    <line x1="220" y1="220" x2="400" y2="220" stroke="black" stroke-width="1"/>
    <line x1="220" y1="220" x2="580" y2="40" stroke="black" stroke-width="1"/>
    <line x1="400" y1="40" x2="40" y2="220" stroke="black" stroke-width="1"/>
    <line x1="400" y1="40" x2="220" y2="40" stroke="black" stroke-width="1"/>
    <line x1="400" y1="40" x2="220" y2="220" stroke="black" stroke-width="1"/>
    <line x1="400" y1="40" x2="400" y2="220" stroke="black" stroke-width="1"/>
    <line x1="400" y1="40" x2="580" y2="40" stroke="black" stroke-width="1"/>
    <line x1="400" y1="40" x2="580" y2="220" stroke="black" stroke-width="1"/>
    <line x1="400" y1="220" x2="220" y2="40" stroke="black" stroke-width="1"/>
    <line x1="400" y1="220" x2="220" y2="220" stroke="black" stroke-width="1"/>
    <line x1="400" y1="220" x2="400" y2="40" stroke="black" stroke-width="1"/>
    <line x1="400" y1="220" x2="580" y2="40" stroke="black" stroke-width="1"/>
    <line x1="400" y1="220" x2="580" y2="220" stroke="black" stroke-width="1"/>
    <line x1="400" y1="220" x2="760" y2="40" stroke="black" stroke-width="1"/>
    <line x1="580" y1="40" x2="220" y2="220" stroke="black" stroke-width="1"/>
    <line x1="580" y1="40" x2="400" y2="40" stroke="black" stroke-width="1"/>
    <line x1="580" y1="40" x2="400" y2="220" stroke="black" stroke-width="1"/>
    <line x1="580" y1="40" x2="580" y2="220" stroke="black" stroke-width="1"/>
    <line x1="580" y1="40" x2="760" y2="40" stroke="black" stroke-width="1"/>
    <line x1="580" y1="40" x2="760" y2="220" stroke="black" stroke-width="1"/>
    <line x1="580" y1="220" x2="400" y2="40" stroke="black" stroke-width="1"/>
    <line x1="580" y1="220" x2="400" y2="220" stroke="black" stroke-width="1"/>
    <line x1="580" y1="220" x2="580" y2="40" stroke="black" stroke-width="1"/>
    <line x1="580" y1="220" x2="760" y2="40" stroke="black" stroke-width="1"/>
    <line x1="580" y1="220" x2="760" y2="220" stroke="black" stroke-width="1"/>
    <line x1="760" y1="40" x2="400" y2="220" stroke="black" stroke-width="1"/>
    <line x1="760" y1="40" x2="580" y2="40" stroke="black" stroke-width="1"/>
    <line x1="760" y1="40" x2="580" y2="220" stroke="black" stroke-width="1"/>
    <line x1="760" y1="40" x2="760" y2="220" stroke="black" stroke-width="1"/>
    <line x1="760" y1="220" x2="580" y2="40" stroke="black" stroke-width="1"/>
    <line x1="760" y1="220" x2="580" y2="220" stroke="black" stroke-width="1"/>
    <line x1="760" y1="220" x2="760" y2="40" stroke="black" stroke-width="1"/>

    <!-- City Circles -->
    <ellipse stroke="black" stroke-width="1" cx="40" cy="40" rx="30" ry="30" style="fill: rgb(255, 255, 255);"/>
    <ellipse stroke="black" stroke-width="1" cx="40" cy="220" rx="30" ry="30" style="fill: rgb(255, 255, 255);"/>
    <ellipse stroke="black" stroke-width="1" cx="220" cy="40" rx="30" ry="30" style="fill: rgb(255, 255, 255);"/>
    <ellipse stroke="black" stroke-width="1" cx="220" cy="220" rx="30" ry="30" style="fill: rgb(255, 255, 255);"/>
    <ellipse stroke="black" stroke-width="1" cx="400" cy="40" rx="30" ry="30" style="fill: rgb(255, 255, 255);"/>
    <ellipse stroke="black" stroke-width="1" cx="400" cy="220" rx="30" ry="30" style="fill: rgb(255, 255, 255);"/>
    <ellipse stroke="black" stroke-width="1" cx="580" cy="40" rx="30" ry="30" style="fill: rgb(255, 255, 255);"/>
    <ellipse stroke="black" stroke-width="1" cx="580" cy="220" rx="30" ry="30" style="fill: rgb(255, 255, 255);"/>
    <ellipse stroke="black" stroke-width="1" cx="760" cy="40" rx="30" ry="30" style="fill: rgb(255, 255, 255);"/>
    <ellipse stroke="black" stroke-width="1" cx="760" cy="220" rx="30" ry="30" style="fill: rgb(255, 255, 255);"/>

    <!-- City Labels -->
    <text x="40" y="46" font-family="Times New Roman" font-size="20" style="white-space: pre; text-anchor: middle; dominant-baseline: middle;">1</text>
    <text x="40" y="226" font-family="Times New Roman" font-size="20" style="white-space: pre; text-anchor: middle; dominant-baseline: middle;">2</text>
    <text x="220" y="46" font-family="Times New Roman" font-size="20" style="white-space: pre; text-anchor: middle; dominant-baseline: middle;">3</text>
    <text x="220" y="226" font-family="Times New Roman" font-size="20" style="white-space: pre; text-anchor: middle; dominant-baseline: middle;">4</text>
    <text x="400" y="46" font-family="Times New Roman" font-size="20" style="white-space: pre; text-anchor: middle; dominant-baseline: middle;">5</text>
    <text x="400" y="226" font-family="Times New Roman" font-size="20" style="white-space: pre; text-anchor: middle; dominant-baseline: middle;">6</text>
    <text x="580" y="46" font-family="Times New Roman" font-size="20" style="white-space: pre; text-anchor: middle; dominant-baseline: middle;">7</text>
    <text x="580" y="226" font-family="Times New Roman" font-size="20" style="white-space: pre; text-anchor: middle; dominant-baseline: middle;">8</text>
    <text x="760" y="46" font-family="Times New Roman" font-size="20" style="white-space: pre; text-anchor: middle; dominant-baseline: middle;">9</text>
    <text x="760" y="226" font-family="Times New Roman" font-size="20" style="white-space: pre; text-anchor: middle; dominant-baseline: middle;">10</text>

    <!-- Edge Label Circles -->
    <ellipse stroke="black" stroke-width="1" cx="40.0" cy="130.0" rx="15" ry="15" style="fill: rgb(255, 255, 255); stroke-dasharray: 2px;"/>
    <ellipse stroke="black" stroke-width="1" cx="130.0" cy="40.0" rx="15" ry="15" style="fill: rgb(255, 255, 255); stroke-dasharray: 2px;"/>
    <ellipse stroke="black" stroke-width="1" cx="130.0" cy="130.0" rx="15" ry="15" style="fill: rgb(255, 255, 255); stroke-dasharray: 2px;"/>
    <ellipse stroke="black" stroke-width="1" cx="40.0" cy="130.0" rx="15" ry="15" style="fill: rgb(255, 255, 255); stroke-dasharray: 2px;"/>
    <ellipse stroke="black" stroke-width="1" cx="130.0" cy="130.0" rx="15" ry="15" style="fill: rgb(255, 255, 255); stroke-dasharray: 2px;"/>
    <ellipse stroke="black" stroke-width="1" cx="130.0" cy="220.0" rx="15" ry="15" style="fill: rgb(255, 255, 255); stroke-dasharray: 2px;"/>
    <ellipse stroke="black" stroke-width="1" cx="220.0" cy="130.0" rx="15" ry="15" style="fill: rgb(255, 255, 255); stroke-dasharray: 2px;"/>
    <ellipse stroke="black" stroke-width="1" cx="130.0" cy="40.0" rx="15" ry="15" style="fill: rgb(255, 255, 255); stroke-dasharray: 2px;"/>
    <ellipse stroke="black" stroke-width="1" cx="130.0" cy="130.0" rx="15" ry="15" style="fill: rgb(255, 255, 255); stroke-dasharray: 2px;"/>
    <ellipse stroke="black" stroke-width="1" cx="220.0" cy="130.0" rx="15" ry="15" style="fill: rgb(255, 255, 255); stroke-dasharray: 2px;"/>
    <ellipse stroke="black" stroke-width="1" cx="310.0" cy="40.0" rx="15" ry="15" style="fill: rgb(255, 255, 255); stroke-dasharray: 2px;"/>
    <ellipse stroke="black" stroke-width="1" cx="310.0" cy="130.0" rx="15" ry="15" style="fill: rgb(255, 255, 255); stroke-dasharray: 2px;"/>
    <ellipse stroke="black" stroke-width="1" cx="130.0" cy="130.0" rx="15" ry="15" style="fill: rgb(255, 255, 255); stroke-dasharray: 2px;"/>
    <ellipse stroke="black" stroke-width="1" cx="130.0" cy="220.0" rx="15" ry="15" style="fill: rgb(255, 255, 255); stroke-dasharray: 2px;"/>
    <ellipse stroke="black" stroke-width="1" cx="220.0" cy="130.0" rx="15" ry="15" style="fill: rgb(255, 255, 255); stroke-dasharray: 2px;"/>
    <ellipse stroke="black" stroke-width="1" cx="310.0" cy="130.0" rx="15" ry="15" style="fill: rgb(255, 255, 255); stroke-dasharray: 2px;"/>
    <ellipse stroke="black" stroke-width="1" cx="310.0" cy="220.0" rx="15" ry="15" style="fill: rgb(255, 255, 255); stroke-dasharray: 2px;"/>
    <ellipse stroke="black" stroke-width="1" cx="400.0" cy="130.0" rx="15" ry="15" style="fill: rgb(255, 255, 255); stroke-dasharray: 2px;"/>
    <ellipse stroke="black" stroke-width="1" cx="220.0" cy="130.0" rx="15" ry="15" style="fill: rgb(255, 255, 255); stroke-dasharray: 2px;"/>
    <ellipse stroke="black" stroke-width="1" cx="310.0" cy="40.0" rx="15" ry="15" style="fill: rgb(255, 255, 255); stroke-dasharray: 2px;"/>
    <ellipse stroke="black" stroke-width="1" cx="310.0" cy="130.0" rx="15" ry="15" style="fill: rgb(255, 255, 255); stroke-dasharray: 2px;"/>
    <ellipse stroke="black" stroke-width="1" cx="400.0" cy="130.0" rx="15" ry="15" style="fill: rgb(255, 255, 255); stroke-dasharray: 2px;"/>
    <ellipse stroke="black" stroke-width="1" cx="490.0" cy="40.0" rx="15" ry="15" style="fill: rgb(255, 255, 255); stroke-dasharray: 2px;"/>
    <ellipse stroke="black" stroke-width="1" cx="490.0" cy="130.0" rx="15" ry="15" style="fill: rgb(255, 255, 255); stroke-dasharray: 2px;"/>
    <ellipse stroke="black" stroke-width="1" cx="310.0" cy="130.0" rx="15" ry="15" style="fill: rgb(255, 255, 255); stroke-dasharray: 2px;"/>
    <ellipse stroke="black" stroke-width="1" cx="310.0" cy="220.0" rx="15" ry="15" style="fill: rgb(255, 255, 255); stroke-dasharray: 2px;"/>
    <ellipse stroke="black" stroke-width="1" cx="400.0" cy="130.0" rx="15" ry="15" style="fill: rgb(255, 255, 255); stroke-dasharray: 2px;"/>
    <ellipse stroke="black" stroke-width="1" cx="490.0" cy="130.0" rx="15" ry="15" style="fill: rgb(255, 255, 255); stroke-dasharray: 2px;"/>
    <ellipse stroke="black" stroke-width="1" cx="490.0" cy="220.0" rx="15" ry="15" style="fill: rgb(255, 255, 255); stroke-dasharray: 2px;"/>
    <ellipse stroke="black" stroke-width="1" cx="580.0" cy="130.0" rx="15" ry="15" style="fill: rgb(255, 255, 255); stroke-dasharray: 2px;"/>
    <ellipse stroke="black" stroke-width="1" cx="400.0" cy="130.0" rx="15" ry="15" style="fill: rgb(255, 255, 255); stroke-dasharray: 2px;"/>
    <ellipse stroke="black" stroke-width="1" cx="490.0" cy="40.0" rx="15" ry="15" style="fill: rgb(255, 255, 255); stroke-dasharray: 2px;"/>
    <ellipse stroke="black" stroke-width="1" cx="490.0" cy="130.0" rx="15" ry="15" style="fill: rgb(255, 255, 255); stroke-dasharray: 2px;"/>
    <ellipse stroke="black" stroke-width="1" cx="580.0" cy="130.0" rx="15" ry="15" style="fill: rgb(255, 255, 255); stroke-dasharray: 2px;"/>
    <ellipse stroke="black" stroke-width="1" cx="670.0" cy="40.0" rx="15" ry="15" style="fill: rgb(255, 255, 255); stroke-dasharray: 2px;"/>
    <ellipse stroke="black" stroke-width="1" cx="670.0" cy="130.0" rx="15" ry="15" style="fill: rgb(255, 255, 255); stroke-dasharray: 2px;"/>
    <ellipse stroke="black" stroke-width="1" cx="490.0" cy="130.0" rx="15" ry="15" style="fill: rgb(255, 255, 255); stroke-dasharray: 2px;"/>
    <ellipse stroke="black" stroke-width="1" cx="490.0" cy="220.0" rx="15" ry="15" style="fill: rgb(255, 255, 255); stroke-dasharray: 2px;"/>
    <ellipse stroke="black" stroke-width="1" cx="580.0" cy="130.0" rx="15" ry="15" style="fill: rgb(255, 255, 255); stroke-dasharray: 2px;"/>
    <ellipse stroke="black" stroke-width="1" cx="670.0" cy="130.0" rx="15" ry="15" style="fill: rgb(255, 255, 255); stroke-dasharray: 2px;"/>
    <ellipse stroke="black" stroke-width="1" cx="670.0" cy="220.0" rx="15" ry="15" style="fill: rgb(255, 255, 255); stroke-dasharray: 2px;"/>
    <ellipse stroke="black" stroke-width="1" cx="580.0" cy="130.0" rx="15" ry="15" style="fill: rgb(255, 255, 255); stroke-dasharray: 2px;"/>
    <ellipse stroke="black" stroke-width="1" cx="670.0" cy="40.0" rx="15" ry="15" style="fill: rgb(255, 255, 255); stroke-dasharray: 2px;"/>
    <ellipse stroke="black" stroke-width="1" cx="670.0" cy="130.0" rx="15" ry="15" style="fill: rgb(255, 255, 255); stroke-dasharray: 2px;"/>
    <ellipse stroke="black" stroke-width="1" cx="760.0" cy="130.0" rx="15" ry="15" style="fill: rgb(255, 255, 255); stroke-dasharray: 2px;"/>
    <ellipse stroke="black" stroke-width="1" cx="670.0" cy="130.0" rx="15" ry="15" style="fill: rgb(255, 255, 255); stroke-dasharray: 2px;"/>
    <ellipse stroke="black" stroke-width="1" cx="670.0" cy="220.0" rx="15" ry="15" style="fill: rgb(255, 255, 255); stroke-dasharray: 2px;"/>
    <ellipse stroke="black" stroke-width="1" cx="760.0" cy="130.0" rx="15" ry="15" style="fill: rgb(255, 255, 255); stroke-dasharray: 2px;"/>

    <!-- Edge Labels -->
    <text x="40.0" y="136.0" font-family="Times New Roman" font-size="20" style="white-space: pre; text-anchor: middle; dominant-baseline: middle;">3</text>
    <text x="130.0" y="46.0" font-family="Times New Roman" font-size="20" style="white-space: pre; text-anchor: middle; dominant-baseline: middle;">4</text>
    <text x="130.0" y="136.0" font-family="Times New Roman" font-size="20" style="white-space: pre; text-anchor: middle; dominant-baseline: middle;">5</text>
    <text x="40.0" y="136.0" font-family="Times New Roman" font-size="20" style="white-space: pre; text-anchor: middle; dominant-baseline: middle;">3</text>
    <text x="130.0" y="136.0" font-family="Times New Roman" font-size="20" style="white-space: pre; text-anchor: middle; dominant-baseline: middle;">5</text>
    <text x="130.0" y="226.0" font-family="Times New Roman" font-size="20" style="white-space: pre; text-anchor: middle; dominant-baseline: middle;">6</text>
    <text x="220.0" y="136.0" font-family="Times New Roman" font-size="20" style="white-space: pre; text-anchor: middle; dominant-baseline: middle;">7</text>
    <text x="130.0" y="46.0" font-family="Times New Roman" font-size="20" style="white-space: pre; text-anchor: middle; dominant-baseline: middle;">4</text>
    <text x="130.0" y="136.0" font-family="Times New Roman" font-size="20" style="white-space: pre; text-anchor: middle; dominant-baseline: middle;">5</text>
    <text x="220.0" y="136.0" font-family="Times New Roman" font-size="20" style="white-space: pre; text-anchor: middle; dominant-baseline: middle;">7</text>
    <text x="310.0" y="46.0" font-family="Times New Roman" font-size="20" style="white-space: pre; text-anchor: middle; dominant-baseline: middle;">8</text>
    <text x="310.0" y="136.0" font-family="Times New Roman" font-size="20" style="white-space: pre; text-anchor: middle; dominant-baseline: middle;">9</text>
    <text x="130.0" y="136.0" font-family="Times New Roman" font-size="20" style="white-space: pre; text-anchor: middle; dominant-baseline: middle;">5</text>
    <text x="130.0" y="226.0" font-family="Times New Roman" font-size="20" style="white-space: pre; text-anchor: middle; dominant-baseline: middle;">6</text>
    <text x="220.0" y="136.0" font-family="Times New Roman" font-size="20" style="white-space: pre; text-anchor: middle; dominant-baseline: middle;">7</text>
    <text x="310.0" y="136.0" font-family="Times New Roman" font-size="20" style="white-space: pre; text-anchor: middle; dominant-baseline: middle;">9</text>
    <text x="310.0" y="226.0" font-family="Times New Roman" font-size="20" style="white-space: pre; text-anchor: middle; dominant-baseline: middle;">10</text>
    <text x="400.0" y="136.0" font-family="Times New Roman" font-size="20" style="white-space: pre; text-anchor: middle; dominant-baseline: middle;">11</text>
    <text x="220.0" y="136.0" font-family="Times New Roman" font-size="20" style="white-space: pre; text-anchor: middle; dominant-baseline: middle;">7</text>
    <text x="310.0" y="46.0" font-family="Times New Roman" font-size="20" style="white-space: pre; text-anchor: middle; dominant-baseline: middle;">8</text>
    <text x="310.0" y="136.0" font-family="Times New Roman" font-size="20" style="white-space: pre; text-anchor: middle; dominant-baseline: middle;">9</text>
    <text x="400.0" y="136.0" font-family="Times New Roman" font-size="20" style="white-space: pre; text-anchor: middle; dominant-baseline: middle;">11</text>
    <text x="490.0" y="46.0" font-family="Times New Roman" font-size="20" style="white-space: pre; text-anchor: middle; dominant-baseline: middle;">12</text>
    <text x="490.0" y="136.0" font-family="Times New Roman" font-size="20" style="white-space: pre; text-anchor: middle; dominant-baseline: middle;">13</text>
    <text x="310.0" y="136.0" font-family="Times New Roman" font-size="20" style="white-space: pre; text-anchor: middle; dominant-baseline: middle;">9</text>
    <text x="310.0" y="226.0" font-family="Times New Roman" font-size="20" style="white-space: pre; text-anchor: middle; dominant-baseline: middle;">10</text>
    <text x="400.0" y="136.0" font-family="Times New Roman" font-size="20" style="white-space: pre; text-anchor: middle; dominant-baseline: middle;">11</text>
    <text x="490.0" y="136.0" font-family="Times New Roman" font-size="20" style="white-space: pre; text-anchor: middle; dominant-baseline: middle;">13</text>
    <text x="490.0" y="226.0" font-family="Times New Roman" font-size="20" style="white-space: pre; text-anchor: middle; dominant-baseline: middle;">14</text>
    <text x="580.0" y="136.0" font-family="Times New Roman" font-size="20" style="white-space: pre; text-anchor: middle; dominant-baseline: middle;">15</text>
    <text x="400.0" y="136.0" font-family="Times New Roman" font-size="20" style="white-space: pre; text-anchor: middle; dominant-baseline: middle;">11</text>
    <text x="490.0" y="46.0" font-family="Times New Roman" font-size="20" style="white-space: pre; text-anchor: middle; dominant-baseline: middle;">12</text>
    <text x="490.0" y="136.0" font-family="Times New Roman" font-size="20" style="white-space: pre; text-anchor: middle; dominant-baseline: middle;">13</text>
    <text x="580.0" y="136.0" font-family="Times New Roman" font-size="20" style="white-space: pre; text-anchor: middle; dominant-baseline: middle;">15</text>
    <text x="670.0" y="46.0" font-family="Times New Roman" font-size="20" style="white-space: pre; text-anchor: middle; dominant-baseline: middle;">16</text>
    <text x="670.0" y="136.0" font-family="Times New Roman" font-size="20" style="white-space: pre; text-anchor: middle; dominant-baseline: middle;">17</text>
    <text x="490.0" y="136.0" font-family="Times New Roman" font-size="20" style="white-space: pre; text-anchor: middle; dominant-baseline: middle;">13</text>
    <text x="490.0" y="226.0" font-family="Times New Roman" font-size="20" style="white-space: pre; text-anchor: middle; dominant-baseline: middle;">14</text>
    <text x="580.0" y="136.0" font-family="Times New Roman" font-size="20" style="white-space: pre; text-anchor: middle; dominant-baseline: middle;">15</text>
    <text x="670.0" y="136.0" font-family="Times New Roman" font-size="20" style="white-space: pre; text-anchor: middle; dominant-baseline: middle;">17</text>
    <text x="670.0" y="226.0" font-family="Times New Roman" font-size="20" style="white-space: pre; text-anchor: middle; dominant-baseline: middle;">18</text>
    <text x="580.0" y="136.0" font-family="Times New Roman" font-size="20" style="white-space: pre; text-anchor: middle; dominant-baseline: middle;">15</text>
    <text x="670.0" y="46.0" font-family="Times New Roman" font-size="20" style="white-space: pre; text-anchor: middle; dominant-baseline: middle;">16</text>
    <text x="670.0" y="136.0" font-family="Times New Roman" font-size="20" style="white-space: pre; text-anchor: middle; dominant-baseline: middle;">17</text>
    <text x="760.0" y="136.0" font-family="Times New Roman" font-size="20" style="white-space: pre; text-anchor: middle; dominant-baseline: middle;">19</text>
    <text x="670.0" y="136.0" font-family="Times New Roman" font-size="20" style="white-space: pre; text-anchor: middle; dominant-baseline: middle;">17</text>
    <text x="670.0" y="226.0" font-family="Times New Roman" font-size="20" style="white-space: pre; text-anchor: middle; dominant-baseline: middle;">18</text>
    <text x="760.0" y="136.0" font-family="Times New Roman" font-size="20" style="white-space: pre; text-anchor: middle; dominant-baseline: middle;">19</text>

</svg>
