<?xml version="1.0" encoding="utf-8"?>
<svg width="800" height="600" version="1.1" xmlns="http://www.w3.org/2000/svg">
  <polygon stroke="black" stroke-width="1" points="214.5,355.5 214.5,171.5"/>
  <polygon stroke="black" stroke-width="1" points="232.5,165.5 379.5,361.5"/>
  <polygon stroke="black" stroke-width="1" points="397.5,355.5 397.5,171.5"/>
  <polygon stroke="black" stroke-width="1" points="580.5,355.5 580.5,171.5"/>
  <polygon points="598.5,165.5 745.5,361.5" style="stroke: rgb(255, 0, 0); stroke-width: 4px;"/>
  <polygon stroke="black" stroke-width="1" points="598.5,361.5 745.5,165.5"/>
  <polygon stroke="black" stroke-width="1" points="422.462,368.859 738.538,158.141"/>
  <polygon stroke="black" stroke-width="1" points="415.5,165.5 562.5,361.5"/>
  <polygon stroke="black" stroke-width="1" points="415.5,361.5 562.5,165.5"/>
  <polygon stroke="black" stroke-width="1" points="239.462,368.859 555.538,158.141"/>
  <polygon stroke="black" stroke-width="1" points="232.5,361.5 379.5,165.5"/>
  <polygon stroke="black" stroke-width="1" points="56.462,368.859 372.538,158.141"/>
  <polygon stroke="black" stroke-width="1" points="49.5,165.5 196.5,361.5"/>
  <polygon stroke="black" stroke-width="1" points="49.5,361.5 196.5,165.5"/>
  <ellipse stroke="black" stroke-width="1" cx="31.5" cy="141.5" rx="30" ry="30" style="fill: rgb(255, 255, 255);"/>
  <text x="26.5" y="147.5" font-family="Times New Roman" font-size="20" style="white-space: pre;">1</text>
  <ellipse stroke="black" stroke-width="1" cx="214.5" cy="141.5" rx="30" ry="30" style="fill: rgb(255, 255, 255);"/>
  <text x="209.5" y="147.5" font-family="Times New Roman" font-size="20" style="white-space: pre;">3</text>
  <ellipse cx="397.5" cy="141.5" rx="30" ry="30" style="fill: rgb(255, 255, 255); stroke: rgb(255, 0, 0); stroke-width: 5px;"/>
  <text x="392.5" y="147.5" font-family="Times New Roman" font-size="20" style="white-space: pre;">5</text>
  <ellipse cx="580.5" cy="141.5" rx="30" ry="30" style="fill: rgb(255, 255, 255); stroke: rgb(255, 0, 0); stroke-width: 5px;"/>
  <text x="575.5" y="147.5" font-family="Times New Roman" font-size="20" style="white-space: pre;">7</text>
  <ellipse stroke="black" stroke-width="1" cx="763.5" cy="141.5" rx="30" ry="30" style="fill: rgb(255, 255, 255);"/>
  <text x="758.5" y="147.5" font-family="Times New Roman" font-size="20" style="white-space: pre;">9</text>
  <ellipse stroke="black" stroke-width="1" cx="31.5" cy="385.5" rx="30" ry="30" style="fill: rgb(255, 255, 255);"/>
  <text x="26.5" y="391.5" font-family="Times New Roman" font-size="20" style="white-space: pre;">2</text>
  <ellipse stroke="black" stroke-width="1" cx="214.5" cy="385.5" rx="30" ry="30" style="fill: rgb(255, 255, 255);"/>
  <text x="209.5" y="391.5" font-family="Times New Roman" font-size="20" style="white-space: pre;">4</text>
  <ellipse stroke="black" stroke-width="1" cx="397.5" cy="385.5" rx="30" ry="30" style="fill: rgb(255, 255, 255);"/>
  <text x="392.5" y="391.5" font-family="Times New Roman" font-size="20" style="white-space: pre;">6</text>
  <ellipse stroke="black" stroke-width="1" cx="580.5" cy="385.5" rx="30" ry="30" style="fill: rgb(255, 255, 255);"/>
  <text x="575.5" y="391.5" font-family="Times New Roman" font-size="20" style="white-space: pre;">8</text>
  <ellipse cx="763.5" cy="385.5" rx="30" ry="30" style="fill: rgb(255, 255, 255); stroke: rgb(255, 0, 0); stroke-width: 5px;"/>
  <text x="753.5" y="391.5" font-family="Times New Roman" font-size="20" style="white-space: pre;">10</text>
  <ellipse stroke-width="1" cx="122.5" cy="263.5" rx="15" ry="15" stroke="black" style="fill: rgb(255, 255, 255); paint-order: fill markers; stroke-dasharray: 2px;"/>
  <text style="white-space: pre;" x="117.5" y="269.5" font-size="20" font-family="Times New Roman">5</text>
  <ellipse stroke="black" stroke-width="1" cx="306.5" cy="263.5" rx="15" ry="15" style="fill: rgb(255, 255, 255); stroke-dasharray: 2px;"/>
  <text x="301.5" y="269.5" font-family="Times New Roman" font-size="20" style="white-space: pre;">9</text>
  <ellipse stroke="black" stroke-width="1" cx="488.5" cy="263.5" rx="15" ry="15" style="fill: rgb(255, 255, 255); stroke-dasharray: 2px;"/>
  <text x="478.5" y="269.5" font-family="Times New Roman" font-size="20" style="white-space: pre;">13</text>
  <ellipse cx="671.5" cy="263.5" rx="15" ry="15" style="fill: rgb(255, 255, 255); stroke-dasharray: 2px; stroke: rgb(255, 0, 0); stroke-width: 4px;"/>
  <text x="661.5" y="269.5" font-family="Times New Roman" font-size="20" style="white-space: pre;">17</text>
  <ellipse stroke="black" stroke-width="1" cx="214.5" cy="263.5" rx="15" ry="15" style="fill: rgb(255, 255, 255); stroke-dasharray: 2px;"/>
  <text x="209.5" y="269.5" font-family="Times New Roman" font-size="20" style="white-space: pre;">7</text>
  <ellipse stroke="black" stroke-width="1" cx="397.5" cy="263.5" rx="15" ry="15" style="fill: rgb(255, 255, 255); stroke-dasharray: 2px;"/>
  <text x="387.5" y="269.5" font-family="Times New Roman" font-size="20" style="white-space: pre;">11</text>
  <ellipse stroke="black" stroke-width="1" cx="580.5" cy="263.5" rx="15" ry="15" style="fill: rgb(255, 255, 255); stroke-dasharray: 2px;"/>
  <text x="570.5" y="269.5" font-family="Times New Roman" font-size="20" style="white-space: pre;">15</text>
  <polygon stroke="black" stroke-width="1" points="61.5,141.5 184.5,141.5"/>
  <text x="118.5" y="132.5" font-family="Times New Roman" font-size="20" style="white-space: pre;">4</text>
  <polygon stroke="black" stroke-width="1" points="244.5,141.5 367.5,141.5"/>
  <text x="301.5" y="132.5" font-family="Times New Roman" font-size="20" style="white-space: pre;">8</text>
  <polygon points="427.5,141.5 550.5,141.5" style="stroke: rgb(255, 0, 0); stroke-width: 4px;"/>
  <text x="479.5" y="132.5" font-family="Times New Roman" font-size="20" style="white-space: pre;">12</text>
  <polygon stroke="black" stroke-width="1" points="610.5,141.5 733.5,141.5"/>
  <text x="662.5" y="132.5" font-family="Times New Roman" font-size="20" style="white-space: pre;">16</text>
  <polygon stroke="black" stroke-width="1" points="763.5,171.5 763.5,355.5"/>
  <text x="768.5" y="269.5" font-family="Times New Roman" font-size="20" style="white-space: pre;">19</text>
  <polygon stroke="black" stroke-width="1" points="733.5,385.5 610.5,385.5"/>
  <text x="662.5" y="406.5" font-family="Times New Roman" font-size="20" style="white-space: pre;">18</text>
  <polygon stroke="black" stroke-width="1" points="550.5,385.5 427.5,385.5"/>
  <text x="479.5" y="406.5" font-family="Times New Roman" font-size="20" style="white-space: pre;">14</text>
  <polygon stroke="black" stroke-width="1" points="367.5,385.5 244.5,385.5"/>
  <text x="296.5" y="406.5" font-family="Times New Roman" font-size="20" style="white-space: pre;">10</text>
  <polygon stroke="black" stroke-width="1" points="184.5,385.5 61.5,385.5"/>
  <text x="118.5" y="406.5" font-family="Times New Roman" font-size="20" style="white-space: pre;">6</text>
  <polygon stroke="black" stroke-width="1" points="31.5,355.5 31.5,171.5"/>
  <text x="16.5" y="269.5" font-family="Times New Roman" font-size="20" style="white-space: pre;">3</text>
</svg>